<svg width="23" height="20" viewBox="0 0 23 20" fill="none" xmlns="http://www.w3.org/2000/svg">
<path opacity="0.3" fill-rule="evenodd" clip-rule="evenodd" d="M11.4658 0.800964C14.1509 0.800964 16.5685 1.95194 18.2496 3.78787L18.2529 3.79114H18.3226C20.189 3.79767 21.5643 4.34104 22.1109 5.51378C22.7066 6.78998 22.1 8.33738 20.6649 9.90192V9.99992C20.6649 15.0808 16.5467 19.199 11.4658 19.199C9.24117 19.199 7.20172 18.4095 5.6107 17.0952C3.27284 17.2825 1.52409 16.7707 0.888984 15.4096C0.295528 14.1367 0.896606 12.5946 2.32415 11.0345L2.30673 10.8712C2.2806 10.5848 2.26644 10.294 2.26644 10C2.26644 4.91918 6.38465 0.800969 11.4655 0.800969L11.4658 0.800964ZM19.5531 5.61189L19.6402 5.7774C19.8569 6.19226 19.8351 6.6899 19.5879 7.08299L19.5509 7.13853C18.3575 8.82632 15.7484 10.7972 12.4437 12.3379C9.31857 13.7948 6.29797 14.5287 4.23562 14.4601L4.21167 14.4579C3.7086 14.4264 3.26323 14.1302 3.03674 13.6848L3.01496 13.6391C2.844 13.2427 2.70027 12.8322 2.58593 12.4108L2.59682 12.45C1.87051 13.4126 1.59503 14.2837 1.89992 14.9382C2.23857 15.6645 3.23927 16.014 4.65708 16.014H4.7638C6.88606 15.9889 9.90365 15.2049 13.0318 13.7458C16.5186 12.1201 19.2746 10.0608 20.5125 8.32532L20.5267 8.30681C21.1604 7.41064 21.388 6.60159 21.1005 5.98525C20.8316 5.40813 20.1434 5.06839 19.1579 4.95296L19.1329 4.91594C19.2832 5.14134 19.4226 5.37329 19.5532 5.61174L19.5531 5.61189ZM7.86469 6.68118L7.78085 6.87283C7.56306 7.37156 7.16453 7.77009 6.66581 7.98787L6.47416 8.07172C6.40992 8.10003 6.35874 8.15121 6.33042 8.21545C6.26836 8.35701 6.3326 8.52144 6.47416 8.58351L6.66581 8.66735C7.16453 8.88513 7.56306 9.28367 7.78085 9.78239L7.86469 9.97404C7.893 10.0383 7.94418 10.0895 8.00843 10.1178C8.14999 10.1798 8.31441 10.1156 8.37648 9.97404L8.46033 9.78239C8.67811 9.28367 9.07664 8.88513 9.57537 8.66735L9.76701 8.58351C9.83126 8.55519 9.88244 8.50402 9.91075 8.43977C9.97282 8.29821 9.90857 8.13379 9.76701 8.07172L9.57537 7.98787C9.07664 7.77009 8.67811 7.37156 8.46033 6.87283L8.37648 6.68118C8.34817 6.61694 8.29699 6.56576 8.23275 6.53745C8.09119 6.47538 7.92676 6.53963 7.86469 6.68118Z" fill="white"/>
<path d="M7.77993 6.87277L7.86377 6.68113C7.92584 6.53957 8.09027 6.47532 8.23183 6.53739C8.29607 6.5657 8.34725 6.61688 8.37556 6.68113L8.45941 6.87277C8.67719 7.3715 9.07572 7.77003 9.57445 7.98781L9.76609 8.07166C9.90765 8.13373 9.9719 8.29815 9.90983 8.43971C9.88152 8.50396 9.83034 8.55514 9.76609 8.58345L9.57445 8.66729C9.07572 8.88507 8.67719 9.28361 8.45941 9.78233L8.37556 9.97398C8.31349 10.1155 8.14907 10.1798 8.00751 10.1177C7.94326 10.0894 7.89208 10.0382 7.86377 9.97398L7.77993 9.78233C7.56214 9.28361 7.16361 8.88507 6.66489 8.66729L6.47324 8.58345C6.33168 8.52138 6.26744 8.35695 6.32951 8.21539C6.35782 8.15115 6.409 8.09997 6.47324 8.07166L6.66489 7.98781C7.16361 7.77003 7.56214 7.3715 7.77993 6.87277Z" fill="white"/>
<path d="M19.6401 5.7776L19.553 5.61209C19.4223 5.37363 19.2831 5.14154 19.1328 4.91614L19.1578 4.95316C20.1433 5.06859 20.8315 5.40833 21.1004 5.98545C21.3879 6.60179 21.1603 7.41085 20.5266 8.30701L20.5124 8.32552C19.2745 10.061 16.5185 12.1203 13.0317 13.746C9.90354 15.2051 6.88595 15.9892 4.76368 16.0142H4.65697C3.23915 16.0142 2.23845 15.6647 1.89981 14.9384C1.59493 14.284 1.87037 13.4129 2.59659 12.4504C2.70914 12.858 2.84922 13.2553 3.01485 13.6393L3.03663 13.685C3.26312 14.1304 3.70849 14.4266 4.21155 14.4581L4.23551 14.4603C6.29786 14.5289 9.31845 13.795 12.4436 12.3381C15.7483 10.7974 18.3573 8.82652 19.5508 7.13873L19.5878 7.0832C19.835 6.6901 19.8568 6.19247 19.6401 5.7776Z" fill="white"/>
<path d="M2.58582 12.411L2.59659 12.4504C2.59297 12.4373 2.58938 12.4241 2.58582 12.411Z" fill="white"/>
</svg>
