<svg width="34" height="35" viewBox="0 0 34 35" fill="none" xmlns="http://www.w3.org/2000/svg">
    <g opacity="0.3" filter="url(#filter0_bii_1463_41674)">
        <path d="M12.9684 2.67209C11.8524 4.79609 11.7804 4.86809 11.6724 3.86009C11.4924 2.06009 11.3124 1.73608 10.7004 2.24009C10.3044 2.56409 10.1604 3.42809 10.1604 5.33609C10.1604 7.46009 9.98043 8.36008 9.22443 9.90808L8.51643 11.3513C8.37203 11.6457 8.36646 11.9891 8.50125 12.288L9.94443 15.4881C10.8444 17.5041 11.6004 19.2321 11.6004 19.3041C11.6004 19.3761 11.1324 19.6281 10.5204 19.8441C9.80043 20.0961 9.44043 20.4561 9.44043 20.9601C9.44043 21.6801 9.29643 21.7161 6.12843 21.6081L2.78043 21.5001L2.67243 19.9521C2.56443 18.2961 1.88043 17.6841 0.98043 18.4401C0.54843 18.8001 0.44043 19.9881 0.44043 24.7761C0.44043 30.2121 0.47643 30.6801 1.12443 31.0401C1.66443 31.2921 1.95243 31.2561 2.38443 30.8241C3.24843 29.9961 9.44043 30.4641 9.44043 31.4001C9.44043 31.7241 9.83643 32.3721 10.3404 32.8401C11.1324 33.5961 11.3844 33.6321 11.9604 33.2721C13.0044 32.6241 14.0124 32.7321 14.2284 33.5601C14.4804 34.4961 15.4164 34.4961 15.9924 33.5601C16.5684 32.6241 17.4324 32.6241 18.0084 33.5601C18.5844 34.4961 19.5204 34.4961 19.7724 33.5601C19.9884 32.7321 20.9964 32.6241 22.0404 33.2721C22.6164 33.6321 22.8684 33.5961 23.6604 32.8401C24.1644 32.3721 24.5604 31.7241 24.5604 31.4001C24.5604 30.4641 30.7524 29.9961 31.6164 30.8241C32.0484 31.2561 32.3364 31.2921 32.8764 31.0401C33.5244 30.6801 33.5604 30.2121 33.5604 24.5961C33.5604 19.6641 33.4524 18.4401 33.0204 18.0801C32.0844 17.2881 31.4364 17.9361 31.3284 19.7721L31.2204 21.5001L27.9444 21.6081C24.6684 21.7161 24.6324 21.6801 24.4164 20.7801C24.2724 20.2761 23.9844 19.8801 23.7324 19.8801C22.2924 19.8441 22.3284 19.2681 24.0204 15.4881L25.4975 12.1883C25.6334 11.8846 25.6246 11.5357 25.4735 11.2393L24.7764 9.87209C24.0204 8.36009 23.8404 7.53209 23.8404 5.37209C23.8404 3.57209 23.6964 2.56409 23.3724 2.27608C22.7244 1.77208 22.4004 2.13209 22.4004 3.39209C22.4004 4.79609 21.8604 4.40009 20.7804 2.20409L20.1588 0.985615C19.988 0.650829 19.6438 0.440086 19.268 0.440086H17.0004H14.757C14.3874 0.440086 14.0479 0.643963 13.8743 0.970238L12.9684 2.67209ZM18.0444 6.34409C18.6924 7.13609 18.4044 10.1961 17.6484 10.6641C16.5684 11.3481 15.7404 10.5201 15.6324 8.57608C15.5244 6.74008 15.9564 5.84008 17.0004 5.84008C17.3604 5.84008 17.8284 6.05609 18.0444 6.34409ZM18.7644 19.0881C19.5924 20.7441 20.0244 21.2121 20.9964 21.5001L22.2204 21.8601V26.1801V30.5001H17.0004H11.7804V26.1801V21.8601L13.0044 21.5001C13.9764 21.2121 14.4084 20.7441 15.2364 19.0881C15.9924 17.6121 16.4964 17.0001 17.0004 17.0001C17.5044 17.0001 18.0084 17.6121 18.7644 19.0881Z"
              fill="white"></path>
    </g>
    <path d="M17.6483 10.6641C18.4043 10.1961 18.6923 7.13607 18.0443 6.34407C17.8283 6.05607 17.3603 5.84007 17.0003 5.84007C15.9563 5.84007 15.5243 6.74007 15.6323 8.57607C15.7403 10.5201 16.5683 11.3481 17.6483 10.6641Z"
          fill="white"></path>
    <path d="M14.1206 26.0001C14.1206 28.5921 14.1926 28.9161 14.7686 28.8081C15.2726 28.7001 15.3806 28.2681 15.3806 26.0001C15.3806 23.7321 15.2726 23.3001 14.7686 23.1921C14.1926 23.0841 14.1206 23.4081 14.1206 26.0001Z"
          fill="white"></path>
    <path d="M18.5846 23.6241C18.4766 23.8761 18.4406 25.1361 18.5126 26.3961C18.5846 28.2321 18.7286 28.7001 19.2686 28.8081C19.8086 28.9161 19.8806 28.5921 19.8806 26.0361C19.8806 23.6601 19.7726 23.1201 19.3406 23.1201C19.0166 23.1201 18.6926 23.3361 18.5846 23.6241Z"
          fill="white"></path>
    <defs>
        <filter id="filter0_bii_1463_41674" x="-39.5596" y="-39.5599" width="113.12" height="113.822"
                filterUnits="userSpaceOnUse" color-interpolation-filters="sRGB">
            <feFlood flood-opacity="0" result="BackgroundImageFix"></feFlood>
            <feGaussianBlur in="BackgroundImageFix" stdDeviation="20"></feGaussianBlur>
            <feComposite in2="SourceAlpha" operator="in" result="effect1_backgroundBlur_1463_41674"></feComposite>
            <feBlend mode="normal" in="SourceGraphic" in2="effect1_backgroundBlur_1463_41674" result="shape"></feBlend>
            <feColorMatrix in="SourceAlpha" type="matrix" values="0 0 0 0 0 0 0 0 0 0 0 0 0 0 0 0 0 0 127 0"
                           result="hardAlpha"></feColorMatrix>
            <feOffset dy="1"></feOffset>
            <feGaussianBlur stdDeviation="1.5"></feGaussianBlur>
            <feComposite in2="hardAlpha" operator="arithmetic" k2="-1" k3="1"></feComposite>
            <feColorMatrix type="matrix" values="0 0 0 0 1 0 0 0 0 1 0 0 0 0 1 0 0 0 0.6 0"></feColorMatrix>
            <feBlend mode="normal" in2="shape" result="effect2_innerShadow_1463_41674"></feBlend>
            <feColorMatrix in="SourceAlpha" type="matrix" values="0 0 0 0 0 0 0 0 0 0 0 0 0 0 0 0 0 0 127 0"
                           result="hardAlpha"></feColorMatrix>
            <feOffset dy="1"></feOffset>
            <feGaussianBlur stdDeviation="1.5"></feGaussianBlur>
            <feComposite in2="hardAlpha" operator="arithmetic" k2="-1" k3="1"></feComposite>
            <feColorMatrix type="matrix" values="0 0 0 0 1 0 0 0 0 1 0 0 0 0 1 0 0 0 0.6 0"></feColorMatrix>
            <feBlend mode="normal" in2="effect2_innerShadow_1463_41674"
                     result="effect3_innerShadow_1463_41674"></feBlend>
        </filter>
    </defs>
</svg>